{
    "asset" : {
        "generator" : "Khronos glTF Blender I/O v1.3.48",
        "version" : "2.0"
    },
    "scene" : 0,
    "scenes" : [
        {
            "name" : "Scene",
            "nodes" : [
                0
            ]
        }
    ],
    "nodes" : [
        {
            "mesh" : 0,
            "name" : "Movelito MOvelito v1 Fundo Menor MOvelito v1.017",
            "translation" : [
                0.002020539715886116,
                0.46401646733283997,
                -0.24875611066818237
            ]
        }
    ],
    "materials" : [
        {
            "doubleSided" : true,
            "emissiveFactor" : [
                0,
                0,
                0
            ],
            "name" : "Ply",
            "pbrMetallicRoughness" : {
                "baseColorFactor" : [
                    1,
                    1,
                    1,
                    1
                ],
                "baseColorTexture" : {
                    "index" : 0,
                    "texCoord" : 0
                },
                "metallicFactor" : 0
            }
        }
    ],
    "meshes" : [
        {
            "name" : "Movelito MOvelito v1 Fundo Menor MOvelito v1.022",
            "primitives" : [
                {
                    "attributes" : {
                        "POSITION" : 0,
                        "NORMAL" : 1,
                        "TANGENT" : 2,
                        "TEXCOORD_0" : 3
                    },
                    "indices" : 4,
                    "material" : 0
                }
            ]
        }
    ],
    "textures" : [
        {
            "source" : 0
        }
    ],
    "images" : [
        {
            "bufferView" : 5,
            "mimeType" : "image/jpeg",
            "name" : "PlyFAce_BAKED"
        }
    ],
    "accessors" : [
        {
            "bufferView" : 0,
            "componentType" : 5126,
            "count" : 5154,
            "max" : [
                0.34000009298324585,
                0.36250007152557373,
                0.5320001244544983
            ],
            "min" : [
                -0.3400001525878906,
                -0.46750012040138245,
                -0.002000093925744295
            ],
            "type" : "VEC3"
        },
        {
            "bufferView" : 1,
            "componentType" : 5126,
            "count" : 5154,
            "type" : "VEC3"
        },
        {
            "bufferView" : 2,
            "componentType" : 5126,
            "count" : 5154,
            "type" : "VEC4"
        },
        {
            "bufferView" : 3,
            "componentType" : 5126,
            "count" : 5154,
            "type" : "VEC2"
        },
        {
            "bufferView" : 4,
            "componentType" : 5123,
            "count" : 5988,
            "type" : "SCALAR"
        }
    ],
    "bufferViews" : [
        {
            "buffer" : 0,
            "byteLength" : 61848,
            "byteOffset" : 0
        },
        {
            "buffer" : 0,
            "byteLength" : 61848,
            "byteOffset" : 61848
        },
        {
            "buffer" : 0,
            "byteLength" : 82464,
            "byteOffset" : 123696
        },
        {
            "buffer" : 0,
            "byteLength" : 41232,
            "byteOffset" : 206160
        },
        {
            "buffer" : 0,
            "byteLength" : 11976,
            "byteOffset" : 247392
        },
        {
            "buffer" : 0,
            "byteLength" : 201729,
            "byteOffset" : 259368
        }
    ],
    "buffers" : [
        {
            "byteLength" : 461100,
            "uri" : "data:application/octet-stream;base64,"
        }
    ]
}
